<svg width="3243" height="1485" viewBox="0 0 3243 1485" fill="none" xmlns="http://www.w3.org/2000/svg">
<path d="M0 0H3242.72V1142.44C3242.72 1331.63 3089.35 1485 2900.16 1485H342.564C153.371 1485 0 1331.63 0 1142.44V0Z" fill="white"/>
<path d="M2733.26 594.931C2765.86 610.213 2792.92 635.384 2810.55 666.825C2828.07 700.153 2837.28 737.314 2837.28 774.993C2837.28 777.173 2837.26 779.438 2837.2 781.59V995.363L2826.14 1017.57L2805.74 1027.65H2754.04L2731.71 1016.41L2715.57 996.181V955.277C2701.47 978.585 2680.51 997.673 2655.95 1009.38C2629.95 1021.27 2601.61 1027.47 2573 1027.47C2571.56 1027.47 2570.07 1027.44 2568.66 1027.42C2567.36 1027.44 2566 1027.47 2564.68 1027.47C2537.7 1027.47 2511.08 1021.17 2486.92 1009.14C2441.62 986.803 2412.92 940.58 2412.92 889.996C2412.92 889.235 2412.93 888.455 2412.93 887.708C2412.94 887.101 2412.93 886.447 2412.93 885.822C2412.93 861.281 2419.82 837.221 2432.79 816.421C2446.67 794.934 2466.34 777.799 2489.5 767.014C2514.94 755.346 2542.69 749.304 2570.67 749.304C2571.96 749.304 2573.3 749.327 2574.56 749.351C2636.96 749.351 2683.61 769.689 2714.52 810.374V793.081C2714.51 792.595 2714.52 792.058 2714.52 791.568C2714.52 768.587 2708 746.05 2695.76 726.631C2683.68 708.595 2666.49 694.531 2646.46 686.225C2624.95 677.321 2601.88 672.722 2578.62 672.722C2577.41 672.722 2576.13 672.746 2574.94 672.764C2535.4 672.858 2497 684.441 2464.25 705.671C2448.56 715.836 2434.39 704.378 2434.39 692.519C2434.39 673.675 2428.19 627.844 2445.8 617.67C2493.11 590.314 2550.24 570.41 2605.12 570.41C2607.11 570.41 2609.25 570.447 2611.2 570.48C2613.43 570.419 2615.76 570.386 2618.02 570.386C2657.44 570.386 2697.39 578.618 2733.26 594.931ZM2667.29 939.343C2680.81 934.356 2692.8 925.803 2701.93 914.639C2709.9 905.114 2714.26 893.082 2714.26 880.662C2714.26 880.499 2714.26 880.326 2714.26 880.167C2714.26 880.069 2714.26 879.962 2714.26 879.864C2714.26 867.981 2710.12 856.458 2702.55 847.307C2693.59 836.858 2682.01 828.962 2669.01 824.456C2653.67 818.984 2637.45 816.16 2621.15 816.16C2620.42 816.16 2619.67 816.178 2618.96 816.178C2618.12 816.164 2617.22 816.15 2616.37 816.15C2600.96 816.15 2585.65 818.98 2571.25 824.461C2559.09 829.056 2548.49 837.035 2540.67 847.428C2533.78 856.967 2530.06 868.462 2530.06 880.247C2530.06 880.588 2530.06 880.942 2530.06 881.279C2530.07 881.549 2530.06 881.834 2530.06 882.11C2530.06 894.109 2533.67 905.833 2540.42 915.741C2548.01 926.246 2558.46 934.361 2570.5 939.091C2584.44 944.577 2599.31 947.401 2614.29 947.401C2615.22 947.401 2616.19 947.388 2617.11 947.374C2617.88 947.369 2618.7 947.387 2619.5 947.387C2635.78 947.387 2652.06 945.067 2667.29 939.343Z" fill="#F51047"/>
<path d="M2769.85 1027.65H2740.45C2728.2 1027.52 2717.74 1025.08 2715.57 1011.7L2715.61 988.173H2769.85V1027.65Z" fill="#F51047"/>
<path d="M2781.36 1027.65H2811.65C2824.27 1027.52 2835.04 1025.08 2837.28 1011.7L2837.24 988.173H2781.36V1027.65Z" fill="#F51047"/>
<path d="M500.426 1013.79C419.562 987.17 407.928 991.283 405.572 951.789L405.563 907.577C406.094 889.553 414.838 881.261 433.182 892.91C453.035 905.515 473.249 913.76 495.706 920.854C529.705 931.591 565.151 937.432 600.828 937.516C602.906 937.619 605.055 937.68 607.166 937.68C625.806 937.68 644.192 933.366 660.881 925.089C673.212 918.718 680.978 906.032 681.044 892.172C681.034 892.027 681.039 891.858 681.039 891.708C681.039 882.074 677.391 872.777 670.838 865.712C659.456 855.885 645.607 849.312 630.793 846.707L536.385 824.345C490.112 812.917 456.78 797.264 436.876 777.015C416.985 757.691 405.557 731.327 405.557 703.618C405.557 703.026 405.571 702.401 405.571 701.824C405.571 701.547 405.571 701.265 405.571 700.984C405.571 676.18 414.607 651.975 430.656 633.064C449.414 611.636 473.677 595.687 500.797 586.968C533.245 576.02 567.361 570.386 601.628 570.386C603.739 570.386 605.962 570.424 608.035 570.461C609.864 570.452 611.904 570.405 613.808 570.405C646.035 570.405 697.178 577.645 728.107 586.621C782.768 602.486 786.674 604.847 788.442 640.486L787.765 682.947C787.295 694.473 775.208 701.06 758.326 692.703C741.792 684.52 729.151 679.21 711.508 673.801C682.384 664.867 651.963 660.257 621.466 660.257C620.982 660.257 620.46 660.257 619.971 660.257C617.264 660.116 614.509 660.041 611.792 660.041C592.512 660.041 573.402 663.763 555.538 670.951C543.042 675.637 534.622 687.431 534.27 700.76C534.387 711.046 539.982 720.521 548.947 725.601C564.094 733.793 580.595 739.54 597.585 742.493L682.168 761.001C717.619 766.409 751.054 781.306 778.804 803.983C799.903 824.331 811.83 852.392 811.83 881.698C811.83 883.82 811.764 885.961 811.647 888.069C811.642 888.769 811.656 889.534 811.656 890.243C811.656 915.835 803.344 940.751 788.004 961.235C770.211 983.771 746.268 1000.78 719.105 1010.18C686.69 1021.71 652.48 1027.65 618.053 1027.65C615.816 1027.65 613.465 1027.61 611.265 1027.57C609.756 1027.55 607.988 1027.6 606.428 1027.6C570.685 1027.6 534.989 1022.92 500.454 1013.81L500.426 1013.79Z" fill="#F51047"/>
<path d="M1000.12 997.086C963.477 978.268 932.819 949.509 911.762 914.163C891.597 879.655 880.921 840.318 880.921 800.344C880.921 799.322 880.949 798.273 880.949 797.28C880.944 796.165 880.916 794.966 880.916 793.823C880.916 754.082 891.593 715.003 911.776 680.767C932.894 645.988 963.571 617.875 1000.13 599.839C1039.77 580.486 1083.44 570.386 1127.63 570.386C1129.83 570.386 1132.06 570.424 1134.22 570.457C1136.37 570.424 1138.69 570.386 1140.89 570.386C1185.17 570.386 1228.91 580.458 1268.67 599.825C1305.21 617.819 1335.83 645.969 1356.8 680.786C1376.9 715.017 1387.52 754.068 1387.52 793.78C1387.52 794.928 1387.5 796.156 1387.5 797.275C1387.49 798.231 1387.52 799.233 1387.52 800.208C1387.52 840.295 1376.9 879.716 1356.8 914.402C1335.96 949.832 1305.36 978.638 1268.68 997.335C1228.89 1017.24 1184.96 1027.64 1140.43 1027.64C1138.37 1027.64 1136.24 1027.61 1134.22 1027.57C1132.11 1027.62 1129.95 1027.65 1127.82 1027.65C1083.44 1027.65 1039.67 1017.17 1000.14 997.091L1000.12 997.086ZM1201.07 910.94C1219.76 900.343 1235.02 883.951 1244.96 864.95C1255.08 845.256 1260.39 823.378 1260.39 801.229C1260.39 800.292 1260.37 799.322 1260.36 798.399C1260.36 797.743 1260.38 797.003 1260.38 796.329C1260.38 774.231 1255.18 752.424 1245.21 732.706C1235.36 713.808 1220.11 698.175 1201.46 687.841C1180.63 677.352 1157.56 671.866 1134.22 671.866C1110.88 671.866 1087.81 677.352 1066.98 687.846C1048.28 698.166 1033.01 713.808 1023.12 732.702C1012.98 752.321 1007.68 774.109 1007.68 796.188C1007.68 797.12 1007.7 798.1 1007.71 799.013C1007.7 799.941 1007.68 800.91 1007.68 801.847C1007.68 823.997 1012.99 845.874 1023.12 865.573C1033.05 884.57 1048.31 900.343 1066.99 910.935C1087.69 921.687 1110.69 927.308 1134.03 927.308C1157.37 927.308 1180.38 921.686 1201.07 910.94Z" fill="#F51047"/>
<path fill-rule="evenodd" clip-rule="evenodd" d="M1581.58 592.325L1581.58 930.402H1793.26V930.294H1823.73C1836.44 930.42 1847.27 932.907 1849.53 946.535L1849.51 956.943L1849.53 956.979V989.627L1849.57 1011.4C1847.32 1025.03 1836.48 1027.52 1823.78 1027.64H1793.3V1027.64H1490.02L1490.01 1027.64H1482.41C1469.7 1027.51 1458.87 1025.03 1456.61 1011.4L1456.66 987.437H1456.7L1456.67 592.409C1456.67 574.876 1457.99 570.386 1479.33 570.386H1557.4C1578.61 570.386 1581.58 573.397 1581.58 592.325Z" fill="#F51047"/>
<path fill-rule="evenodd" clip-rule="evenodd" d="M2398.92 491.572L2160.91 988.839L2160.89 988.853L2149.16 1014.15C2144.01 1025.21 2132.81 1028.36 2123.37 1028H2114.06L2113.99 1028.03H2064.43V1028.04H2033.96C2024.51 1028.4 2013.32 1025.25 2008.17 1014.19L2008.01 1013.84L1799.04 598.53C1787.52 574.47 1803.28 570.563 1821.75 570.896H1893.85C1911.54 570.615 1922.48 570.727 1929.68 590.388L2083.62 907.416L2262.09 484.213C2271.6 458.432 2280.84 456.987 2319.87 457.348H2377.76C2411.96 457.348 2413.07 461.996 2398.92 491.572Z" fill="#F51047"/>
</svg>
